<?xml version="1.0" encoding="UTF-8"?>
<svg id="Capa_1" data-name="Capa 1" xmlns="http://www.w3.org/2000/svg" viewBox="0 0 4915.56 4915.56">
  <defs>
    <style>
      .cls-1 {
        fill: #fff;
        stroke-width: 0px;
      }
    </style>
  </defs>
  <g id="ICO_BLANCO" data-name="ICO BLANCO">
    <path class="cls-1" d="m3151,1831.79c-1.57.65-2.6,2.19-2.6,3.9-.04,288.21-.18,576.63-.41,865.27,0,3.86,2.46,5.07,7.39,3.61,1.15-.34,2.13-1.1,2.78-2.13,5.64-9.07,11.28-18.26,16.92-27.56,268.65-444.59,536.25-889.8,802.81-1335.62,24.31-40.75,63.58-48.68,112.44-48.74,208.24-.35,415.49-.39,621.76-.12,6.27.01,11.35,5.11,11.33,11.38,0,2.17-.63,4.3-1.81,6.13-43.77,68.14-88.25,135.01-133.44,200.63-470.26,683.24-939.84,1366.94-1408.72,2051.13-21.88,31.88-50.75,64.89-92.09,65.12-177.72.87-354.45.67-530.2-.59-10.8-.06-19.52-8.84-19.52-19.64V1318.39c0-14.79,7.39-22.18,22.18-22.18h872.43c8.17,0,14.79,6.62,14.79,14.79v505.54c0,7.42-6.01,13.43-13.43,13.43h0c-90.93.04-182.57.18-274.92.41-3,.04-5.56.51-7.69,1.42Z"/>
    <path class="cls-1" d="m1757.95,2211.22c-271.53,449.68-541.93,899.95-811.21,1350.82-22.36,37.44-52.76,62.87-98.01,62.87-216.07.06-432.31,1.95-648.32-1.42-4.64-.07-8.34-3.89-8.27-8.53.02-1.5.45-2.97,1.23-4.25,13.64-22.4,27.44-43.79,41.4-64.18,506.42-738.12,1012.71-1476.35,1518.86-2214.67,23.42-34.19,57.2-41.52,100.31-41.58,169.28-.24,337.26-.28,503.94-.12,9.9,0,17.92,8.02,17.92,17.92v2294.52c0,9.9-8.02,17.92-17.92,17.92h-876.69c-11.43,0-20.7-9.27-20.7-20.7v-495.36c0-8.98,7.28-16.27,16.27-16.27h282.43c2.48,0,4.5-1.99,4.5-4.44h0l.06-870.95c-.03-1.73-1.46-3.11-3.19-3.08-1.06.02-2.04.58-2.6,1.48Z"/>
  </g>
</svg>